<?xml version="1.0" encoding="iso-8859-1"?>
<!-- Generator: Adobe Illustrator 19.0.0, SVG Export Plug-In . SVG Version: 6.00 Build 0)  -->
<svg version="1.1" id="Layer_1" xmlns="http://www.w3.org/2000/svg" xmlns:xlink="http://www.w3.org/1999/xlink" x="0px" y="0px"
	 viewBox="0 0 512 512" style="enable-background:new 0 0 512 512;" xml:space="preserve">
<g>
	<path style="fill:#ADABA6;" d="M256,104.419c-4.61,0-8.348-3.736-8.348-8.348V31.328c0-4.611,3.738-8.348,8.348-8.348
		c4.611,0,8.348,3.736,8.348,8.348v64.744C264.348,100.683,260.61,104.419,256,104.419z"/>
	<path style="fill:#ADABA6;" d="M66.241,222.944c-2.976,0-5.857-1.597-7.363-4.403c-2.179-4.063-0.653-9.122,3.409-11.302
		l175.055-93.933c4.064-2.179,9.122-0.652,11.303,3.409c2.179,4.062,0.653,9.123-3.409,11.302L70.181,221.949
		C68.925,222.623,67.574,222.944,66.241,222.944z"/>
	<path style="fill:#ADABA6;" d="M445.761,222.941c-1.332,0-2.684-0.319-3.94-0.994l-175.056-93.932
		c-4.062-2.179-5.589-7.24-3.409-11.302c2.179-4.063,7.24-5.589,11.303-3.409l175.056,93.932c4.061,2.179,5.589,7.24,3.409,11.302
		C451.617,221.345,448.737,222.941,445.761,222.941z"/>
</g>
<g>
	<path style="fill:#CCC3A8;" d="M380.534,31.328h33.667h83.848c7.704,0,13.95-6.245,13.95-13.95V13.95C512,6.245,505.754,0,498.05,0
		h-83.848H97.798H13.95C6.245,0,0,6.245,0,13.95v3.428c0,7.704,6.245,13.95,13.95,13.95h83.848h251.571"/>
	<path style="fill:#CCC3A8;" d="M256,137.81c-13.807,0-25.041-11.235-25.041-25.043S242.193,87.723,256,87.723
		c13.81,0,25.043,11.235,25.043,25.043C281.043,126.576,269.81,137.81,256,137.81z M256,104.419c-4.602,0-8.346,3.744-8.346,8.348
		c0,4.604,3.743,8.348,8.346,8.348c4.604,0,8.348-3.744,8.348-8.348C264.348,108.164,260.604,104.419,256,104.419z"/>
</g>
<g>
	<path style="fill:#7C7A75;" d="M66.864,254.68H35.536c-4.61,0-8.348-3.736-8.348-8.348V218.75
		c0-12.295,10.003-22.298,22.298-22.298h3.428c12.295,0,22.298,10.003,22.298,22.298v27.582
		C75.212,250.943,71.474,254.68,66.864,254.68z M43.884,237.984h14.632V218.75c0-3.089-2.513-5.602-5.602-5.602h-3.428
		c-3.089,0-5.602,2.513-5.602,5.602V237.984z"/>
	<path style="fill:#7C7A75;" d="M476.465,254.68h-31.328c-4.61,0-8.348-3.736-8.348-8.348V218.75
		c0-12.295,10.003-22.298,22.298-22.298h3.428c12.296,0,22.298,10.003,22.298,22.298v27.582
		C484.813,250.943,481.076,254.68,476.465,254.68z M453.484,237.984h14.632V218.75c0-3.089-2.513-5.602-5.602-5.602h-3.428
		c-3.089,0-5.602,2.513-5.602,5.602L453.484,237.984L453.484,237.984z"/>
</g>
<path style="fill:#C9B585;" d="M254.613,120.99c-3.944-0.664-6.959-4.094-6.959-8.223c0-4.129,3.015-7.559,6.959-8.223
	c2.163-6.203,6.699-11.301,12.518-14.202c-3.356-1.673-7.133-2.619-11.132-2.619c-13.807,0-25.041,11.235-25.041,25.043
	s11.234,25.043,25.041,25.043c3.998,0,7.776-0.946,11.132-2.619C261.311,132.291,256.776,127.193,254.613,120.99z"/>
<g>
	<path style="fill:#6B6861;" d="M49.449,246.332v-8.348h-5.565V218.75c0-3.089,2.513-5.602,5.602-5.602h0.703
		c1.684-6.47,6.194-11.795,12.141-14.581c-2.865-1.343-6.048-2.115-9.416-2.115h-3.428c-12.295,0-22.298,10.003-22.298,22.298
		v27.582c0,4.611,3.738,8.348,8.348,8.348h22.261C53.187,254.68,49.449,250.943,49.449,246.332z"/>
	<path style="fill:#6B6861;" d="M459.049,246.332v-8.348h-5.565V218.75c0-3.089,2.513-5.602,5.602-5.602h0.705
		c1.684-6.47,6.193-11.795,12.141-14.581c-2.865-1.343-6.049-2.115-9.417-2.115h-3.428c-12.295,0-22.298,10.003-22.298,22.298
		v27.582c0,4.611,3.738,8.348,8.348,8.348h22.261C462.788,254.68,459.049,250.943,459.049,246.332z"/>
</g>
<path style="fill:#1E834E;" d="M463.026,477.496H512v21.148c0,7.376-5.98,13.357-13.357,13.357H13.357C5.979,512,0,506.02,0,498.643
	v-21.148h433.717"/>
<path style="fill:#4BAF78;" d="M512,477.496V265.254c0-24.072-5.98-30.052-13.357-30.052H13.357C5.979,235.202,0,241.182,0,265.254
	v212.242"/>
<path style="fill:#106634;" d="M22.262,498.643v-21.148H0v21.148C0,506.02,5.979,512,13.357,512h22.261
	C28.241,512,22.262,506.02,22.262,498.643z"/>
<path style="fill:#2EA044;" d="M35.619,235.202H13.357C5.979,235.202,0,241.182,0,265.254v212.242h22.261V265.254
	C22.262,241.183,28.241,235.202,35.619,235.202z"/>
<g>
	<path style="fill:#1E834E;" d="M51.2,454.678c-4.61,0-8.348-3.736-8.348-8.348V264.904c0-4.611,3.738-8.348,8.348-8.348
		s8.348,3.736,8.348,8.348V446.33C59.548,450.942,55.81,454.678,51.2,454.678z"/>
	<path style="fill:#1E834E;" d="M102.4,454.678c-4.61,0-8.348-3.736-8.348-8.348V264.904c0-4.611,3.738-8.348,8.348-8.348
		s8.348,3.736,8.348,8.348V446.33C110.748,450.942,107.01,454.678,102.4,454.678z"/>
	<path style="fill:#1E834E;" d="M153.6,454.678c-4.61,0-8.348-3.736-8.348-8.348V264.904c0-4.611,3.738-8.348,8.348-8.348
		c4.61,0,8.348,3.736,8.348,8.348V446.33C161.948,450.942,158.21,454.678,153.6,454.678z"/>
	<path style="fill:#1E834E;" d="M204.8,454.678c-4.61,0-8.348-3.736-8.348-8.348V264.904c0-4.611,3.738-8.348,8.348-8.348
		c4.611,0,8.348,3.736,8.348,8.348V446.33C213.148,450.942,209.41,454.678,204.8,454.678z"/>
	<path style="fill:#1E834E;" d="M256,454.678c-4.61,0-8.348-3.736-8.348-8.348V264.904c0-4.611,3.738-8.348,8.348-8.348
		c4.611,0,8.348,3.736,8.348,8.348V446.33C264.348,450.942,260.61,454.678,256,454.678z"/>
	<path style="fill:#1E834E;" d="M307.2,454.678c-4.61,0-8.348-3.736-8.348-8.348V264.904c0-4.611,3.738-8.348,8.348-8.348
		c4.611,0,8.348,3.736,8.348,8.348V446.33C315.548,450.942,311.81,454.678,307.2,454.678z"/>
	<path style="fill:#1E834E;" d="M358.4,454.678c-4.61,0-8.348-3.736-8.348-8.348V264.904c0-4.611,3.738-8.348,8.348-8.348
		c4.611,0,8.348,3.736,8.348,8.348V446.33C366.748,450.942,363.01,454.678,358.4,454.678z"/>
	<path style="fill:#1E834E;" d="M409.6,454.678c-4.61,0-8.348-3.736-8.348-8.348V264.904c0-4.611,3.738-8.348,8.348-8.348
		c4.611,0,8.348,3.736,8.348,8.348V446.33C417.948,450.942,414.21,454.678,409.6,454.678z"/>
	<path style="fill:#1E834E;" d="M460.8,454.678c-4.61,0-8.348-3.736-8.348-8.348V264.904c0-4.611,3.738-8.348,8.348-8.348
		c4.611,0,8.348,3.736,8.348,8.348V446.33C469.148,450.942,465.41,454.678,460.8,454.678z"/>
</g>
<path style="fill:#C9B585;" d="M23.003,17.378v-3.427C23.003,6.245,29.249,0,36.953,0H13.951C6.245,0,0,6.245,0,13.951v3.427
	c0,7.706,6.245,13.951,13.951,13.951h23.002C29.249,31.329,23.003,25.084,23.003,17.378z"/>
<path style="opacity:0.1;fill:#F5F5F5;enable-background:new    ;" d="M498.643,235.202H193.7
	c22.22,114.67,123.142,201.263,244.305,201.263c25.767,0,50.619-3.917,73.994-11.185V265.254
	C512,241.183,506.02,235.202,498.643,235.202z"/>
<g>
</g>
<g>
</g>
<g>
</g>
<g>
</g>
<g>
</g>
<g>
</g>
<g>
</g>
<g>
</g>
<g>
</g>
<g>
</g>
<g>
</g>
<g>
</g>
<g>
</g>
<g>
</g>
<g>
</g>
</svg>
